<svg width="25" height="25" viewBox="0 0 25 25" fill="none" xmlns="http://www.w3.org/2000/svg">
<path d="M12.5 21.5401C12.9045 21.5401 13.2324 21.2122 13.2324 20.8077V10.9733C13.2324 10.5688 12.9045 10.2409 12.5 10.2409C12.0955 10.2409 11.7676 10.5688 11.7676 10.9733V20.8077C11.7676 21.2122 12.0955 21.5401 12.5 21.5401Z" fill="#86939C"/>
<path d="M8.46743 20.8766C8.50552 21.28 8.86367 21.575 9.26548 21.5369C9.66821 21.4988 9.96382 21.1416 9.92578 20.7388L8.99717 10.9044C8.95913 10.5017 8.60249 10.206 8.19912 10.2441C7.79639 10.2821 7.50078 10.6394 7.53882 11.0421L8.46743 20.8766Z" fill="#86939C"/>
<path d="M15.7346 21.5369C16.1369 21.5749 16.4946 21.2796 16.5327 20.8766L17.4613 11.0422C17.4993 10.6395 17.2037 10.2822 16.801 10.2441C16.3977 10.2059 16.041 10.5018 16.003 10.9044L15.0743 20.7389C15.0363 21.1415 15.332 21.4989 15.7346 21.5369Z" fill="#86939C"/>
<path d="M2.81482 8.24585H3.25266L5.37415 24.3632C5.42209 24.7276 5.73274 25 6.10032 25H18.8999C19.2675 25 19.5781 24.7276 19.626 24.3632L21.7475 8.24585H22.1854C22.5899 8.24585 22.9178 7.91792 22.9178 7.51343V4.30889C22.9178 3.90439 22.5899 3.57646 22.1854 3.57646H15.9179V3.28784C15.9179 1.47495 14.443 0 12.6301 0H12.3701C10.5572 0 9.08225 1.47495 9.08225 3.28784V3.57646H2.81482C2.41033 3.57646 2.0824 3.90439 2.0824 4.30889V7.51343C2.0824 7.91792 2.41028 8.24585 2.81482 8.24585ZM18.2575 23.5352H6.7426L4.73015 8.24585H20.27L18.2575 23.5352ZM10.547 3.28784C10.547 2.28267 11.3649 1.46484 12.37 1.46484H12.6301C13.6352 1.46484 14.4531 2.28267 14.4531 3.28784V3.57646H10.547V3.28784ZM3.54724 5.04131H21.453V6.78101C21.2964 6.78101 3.74255 6.78101 3.54724 6.78101V5.04131Z" fill="#86939C"/>
</svg>
