<svg width="25" height="25" viewBox="0 0 25 25" fill="none" xmlns="http://www.w3.org/2000/svg">
<g clip-path="url(#clip0_33_879)">
<path d="M23.0484 15.6889C22.7028 15.6889 22.2806 15.969 22.2806 16.3147V21.8708C22.2806 22.6566 21.5203 23.4632 20.6874 23.464L3.12887 23.464C2.38222 23.4473 1.53695 22.6801 1.53573 21.8708V5.56379C1.53664 4.7939 2.32738 4.0071 3.12887 4.00617L8.68505 4.00619C9.0307 4.00619 9.31082 3.58395 9.31082 3.23832C9.31082 2.89293 9.0307 2.43494 8.68505 2.43494L3.12887 2.43495C1.40163 2.43691 0.00195534 3.83659 0 5.56382V21.8711C0.00195534 23.5983 1.40163 24.998 3.12887 25H20.6874C22.4147 24.998 23.8144 23.5983 23.8163 21.8711V16.3147C23.8163 15.969 23.3941 15.6889 23.0484 15.6889H23.0485L23.0484 15.6889Z" fill="#86939C"/>
<path d="M23.5684 0.824805C22.4686 -0.274935 20.6857 -0.274935 19.5859 0.824805L8.42169 11.989C8.34517 12.0655 8.28992 12.1604 8.26109 12.2645L6.79298 17.5647C6.7326 17.7821 6.79395 18.0148 6.95333 18.1744C7.11295 18.3338 7.34567 18.3951 7.56298 18.335L12.8632 16.8666C12.9674 16.8378 13.0622 16.7825 13.1387 16.706L24.3027 5.54158C25.4007 4.4411 25.4007 2.6596 24.3027 1.5591L23.5684 0.824805ZM9.78523 12.3958L18.9223 3.25848L21.869 6.20525L12.7318 15.3425L9.78524 12.3958H9.78523ZM9.1966 13.5769L11.5508 15.9314L8.29437 16.8336L9.1966 13.5769ZM23.4178 4.65669L22.7541 5.32035L19.8071 2.37335L20.471 1.70968C21.0819 1.09883 22.0724 1.09883 22.6833 1.70968L23.4178 2.44398C24.0277 3.05559 24.0277 4.04533 23.4178 4.65669Z" fill="#86939C"/>
</g>
<defs>
<clipPath id="clip0_33_879">
<rect width="25" height="25" fill="white"/>
</clipPath>
</defs>
</svg>
