<svg width="58" height="58" viewBox="0 0 58 58" fill="none" xmlns="http://www.w3.org/2000/svg">
<path d="M50.949 12.187L45.131 6.369L40.084 1.321L39.314 0.551C38.964 0.201 38.48 0 37.985 0H8.963C7.777 0 6.5 0.916 6.5 2.926V39V55.537V56C6.5 56.837 7.342 57.653 8.338 57.91C8.388 57.923 8.436 57.942 8.488 57.952C8.644 57.983 8.803 58 8.963 58H49.037C49.197 58 49.356 57.983 49.512 57.952C49.564 57.942 49.613 57.923 49.664 57.909C50.659 57.652 51.5 56.837 51.5 56V55.537V39V13.978C51.5 13.211 51.407 12.644 50.949 12.187ZM47.935 12H39.5V3.565L43.748 7.814L47.935 12ZM8.963 2H37.558C37.525 2.126 37.5 2.256 37.5 2.391V14H49.108C49.243 14 49.373 13.975 49.499 13.942C49.499 13.957 49.5 13.963 49.5 13.978V26.671L41.189 18.775C40.994 18.59 40.744 18.491 40.464 18.501C40.195 18.511 39.943 18.628 39.761 18.826L29.966 29.553L25.223 24.81C24.854 24.441 24.265 24.418 23.868 24.755L8.5 37.836V2.926C8.5 2.709 8.533 2 8.963 2ZM8.963 56C8.892 56 8.828 55.974 8.765 55.951C8.609 55.877 8.5 55.721 8.5 55.537V41H49.5V55.537C49.5 55.721 49.39 55.877 49.235 55.951C49.172 55.975 49.108 56 49.037 56H8.963ZM10.218 39L24.463 26.876L34.776 37.19C35.167 37.581 35.799 37.581 36.19 37.19C36.581 36.799 36.581 36.167 36.19 35.776L31.383 30.969L40.551 20.928L49.5 29.429V39H10.218Z" fill="#B9C2C9"/>
<path d="M19.354 51.43C19.335 51.876 19.183 52.194 18.896 52.38C18.609 52.566 18.224 52.66 17.741 52.66C17.55 52.66 17.345 52.638 17.126 52.592C16.907 52.546 16.697 52.494 16.497 52.435C16.296 52.375 16.112 52.312 15.943 52.244C15.774 52.176 15.644 52.109 15.553 52.046L14.856 53.153C15.038 53.29 15.261 53.413 15.526 53.522C15.79 53.631 16.066 53.729 16.353 53.816C16.64 53.903 16.918 53.966 17.187 54.007C17.456 54.048 17.69 54.069 17.891 54.069C18.292 54.069 18.682 54.03 19.06 53.953C19.438 53.876 19.773 53.739 20.065 53.543C20.357 53.347 20.589 53.087 20.762 52.764C20.935 52.441 21.022 52.041 21.022 51.568V43.72H19.354V51.43Z" fill="#B9C2C9"/>
<path d="M28.767 44.744C28.434 44.471 28.058 44.265 27.639 44.129C27.22 43.992 26.796 43.924 26.368 43.924H23.47V54H25.111V50.363H26.328C26.856 50.363 27.34 50.286 27.777 50.131C28.214 49.976 28.588 49.757 28.898 49.475C29.208 49.193 29.449 48.844 29.623 48.429C29.796 48.014 29.883 47.552 29.883 47.041C29.883 46.558 29.78 46.123 29.575 45.735C29.37 45.347 29.099 45.018 28.767 44.744ZM28.145 48.073C28.044 48.351 27.913 48.567 27.749 48.722C27.585 48.877 27.405 48.989 27.209 49.057C27.013 49.125 26.814 49.16 26.614 49.16H25.11V45.168H26.34C26.759 45.168 27.096 45.234 27.352 45.366C27.607 45.498 27.805 45.662 27.947 45.858C28.088 46.054 28.181 46.259 28.227 46.473C28.272 46.687 28.295 46.876 28.295 47.04C28.295 47.451 28.245 47.795 28.145 48.073Z" fill="#B9C2C9"/>
<path d="M35.76 49.926H37.469V52.414C37.396 52.515 37.282 52.592 37.127 52.646C36.972 52.701 36.81 52.744 36.642 52.776C36.473 52.808 36.305 52.831 36.136 52.844C35.967 52.858 35.833 52.865 35.733 52.865C35.405 52.865 35.092 52.788 34.796 52.633C34.5 52.478 34.235 52.241 34.003 51.922C33.771 51.603 33.588 51.193 33.456 50.692C33.324 50.191 33.253 49.598 33.244 48.915C33.253 48.213 33.326 47.621 33.463 47.138C33.6 46.655 33.789 46.261 34.03 45.955C34.271 45.649 34.545 45.434 34.85 45.306C35.155 45.178 35.476 45.115 35.814 45.115C36.115 45.115 36.406 45.175 36.689 45.293C36.971 45.411 37.222 45.603 37.441 45.867L38.576 44.855C38.202 44.491 37.778 44.217 37.305 44.035C36.831 43.852 36.321 43.762 35.774 43.762C35.181 43.762 34.63 43.873 34.12 44.097C33.609 44.321 33.165 44.646 32.787 45.075C32.409 45.504 32.112 46.039 31.898 46.681C31.684 47.324 31.577 48.069 31.577 48.916C31.577 49.763 31.684 50.511 31.898 51.158C32.112 51.805 32.408 52.343 32.787 52.771C33.165 53.2 33.607 53.523 34.113 53.742C34.619 53.961 35.173 54.07 35.774 54.07C36.075 54.07 36.378 54.048 36.683 54.002C36.988 53.956 37.285 53.879 37.572 53.77C37.859 53.661 38.133 53.522 38.392 53.353C38.651 53.184 38.886 52.968 39.096 52.704V48.808H35.76V49.926Z" fill="#B9C2C9"/>
<path d="M19.069 23.638C22.14 23.638 24.638 21.14 24.638 18.069C24.638 14.998 22.14 12.5 19.069 12.5C15.998 12.5 13.5 14.998 13.5 18.069C13.5 21.14 15.998 23.638 19.069 23.638ZM19.069 14.5C21.037 14.5 22.638 16.101 22.638 18.069C22.638 20.037 21.037 21.638 19.069 21.638C17.101 21.638 15.5 20.037 15.5 18.069C15.5 16.101 17.101 14.5 19.069 14.5Z" fill="#B9C2C9"/>
</svg>
