<svg width="58" height="58" viewBox="0 0 58 58" fill="none" xmlns="http://www.w3.org/2000/svg">
<path d="M50.95 12.187L50.179 11.416L40.084 1.321L39.313 0.55C38.964 0.201 38.48 0 37.985 0H8.963C7.777 0 6.5 0.916 6.5 2.926V39V55.537V56C6.5 56.837 7.342 57.653 8.338 57.91C8.388 57.923 8.436 57.942 8.488 57.952C8.644 57.983 8.803 58 8.963 58H49.037C49.197 58 49.356 57.983 49.512 57.952C49.564 57.942 49.612 57.923 49.662 57.91C50.658 57.653 51.5 56.837 51.5 56V55.537V39V13.978C51.5 13.211 51.408 12.645 50.95 12.187ZM47.935 12H39.5V3.565L47.935 12ZM8.963 56C8.892 56 8.828 55.974 8.765 55.951C8.609 55.877 8.5 55.721 8.5 55.537V41H49.5V55.537C49.5 55.721 49.391 55.876 49.235 55.951C49.172 55.974 49.108 56 49.037 56H8.963ZM8.5 39V2.926C8.5 2.709 8.533 2 8.963 2H37.558C37.525 2.126 37.5 2.256 37.5 2.391V14H49.109C49.244 14 49.373 13.975 49.499 13.942C49.499 13.957 49.5 13.963 49.5 13.978V39H8.5Z" fill="#B9C2C9"/>
<path d="M23.235 45.4C22.811 44.954 22.278 44.595 21.635 44.327C20.992 44.059 20.247 43.924 19.4 43.924H16.365V54H20.179C20.306 54 20.502 53.984 20.767 53.952C21.031 53.92 21.323 53.848 21.642 53.733C21.961 53.619 22.291 53.448 22.633 53.22C22.975 52.992 23.282 52.68 23.556 52.283C23.83 51.886 24.055 51.394 24.233 50.806C24.411 50.218 24.5 49.509 24.5 48.68C24.5 48.078 24.395 47.492 24.186 46.923C23.976 46.355 23.659 45.847 23.235 45.4ZM22.039 51.73C21.547 52.441 20.745 52.796 19.633 52.796H18.006V45.167H18.963C19.747 45.167 20.385 45.27 20.877 45.475C21.369 45.68 21.759 45.949 22.046 46.282C22.333 46.615 22.526 46.986 22.627 47.396C22.727 47.806 22.777 48.221 22.777 48.64C22.777 49.989 22.531 51.02 22.039 51.73Z" fill="#B9C2C9"/>
<path d="M33.265 45.072C32.887 44.643 32.445 44.318 31.939 44.094C31.433 43.87 30.879 43.759 30.278 43.759C29.677 43.759 29.123 43.87 28.617 44.094C28.111 44.318 27.669 44.643 27.291 45.072C26.913 45.501 26.616 46.036 26.402 46.678C26.188 47.321 26.081 48.066 26.081 48.913C26.081 49.76 26.188 50.508 26.402 51.155C26.616 51.802 26.912 52.34 27.291 52.768C27.669 53.197 28.111 53.52 28.617 53.739C29.123 53.958 29.677 54.067 30.278 54.067C30.879 54.067 31.433 53.958 31.939 53.739C32.445 53.52 32.887 53.197 33.265 52.768C33.643 52.339 33.939 51.802 34.154 51.155C34.368 50.508 34.475 49.76 34.475 48.913C34.475 48.066 34.368 47.32 34.154 46.678C33.939 46.036 33.643 45.501 33.265 45.072ZM32.588 50.698C32.451 51.185 32.262 51.58 32.021 51.881C31.779 52.182 31.506 52.399 31.201 52.53C30.895 52.662 30.574 52.728 30.237 52.728C29.909 52.728 29.596 52.658 29.3 52.516C29.004 52.374 28.739 52.152 28.507 51.846C28.275 51.54 28.092 51.147 27.96 50.663C27.828 50.18 27.757 49.597 27.748 48.913C27.757 48.211 27.83 47.619 27.967 47.136C28.104 46.653 28.293 46.259 28.534 45.953C28.775 45.647 29.049 45.432 29.354 45.304C29.659 45.176 29.98 45.113 30.318 45.113C30.646 45.113 30.958 45.181 31.255 45.318C31.551 45.455 31.816 45.678 32.048 45.988C32.28 46.298 32.463 46.692 32.595 47.171C32.727 47.65 32.798 48.231 32.807 48.914C32.797 49.616 32.725 50.211 32.588 50.698Z" fill="#B9C2C9"/>
<path d="M39.062 45.954C39.303 45.648 39.577 45.433 39.882 45.305C40.187 45.177 40.508 45.114 40.846 45.114C41.147 45.114 41.436 45.174 41.714 45.292C41.992 45.41 42.245 45.602 42.473 45.866L43.608 44.854C43.234 44.49 42.81 44.216 42.337 44.034C41.863 43.851 41.353 43.761 40.806 43.761C40.213 43.761 39.662 43.872 39.152 44.096C38.641 44.32 38.197 44.645 37.819 45.074C37.441 45.503 37.144 46.038 36.93 46.68C36.716 47.323 36.609 48.068 36.609 48.915C36.609 49.762 36.716 50.51 36.93 51.157C37.144 51.804 37.44 52.342 37.819 52.77C38.197 53.199 38.639 53.522 39.145 53.741C39.651 53.96 40.205 54.069 40.806 54.069C41.353 54.069 41.863 53.978 42.337 53.796C42.811 53.613 43.234 53.34 43.608 52.976L42.473 51.978C42.236 52.243 41.974 52.434 41.687 52.552C41.4 52.67 41.092 52.73 40.764 52.73C40.436 52.73 40.123 52.66 39.827 52.518C39.531 52.376 39.266 52.154 39.034 51.848C38.802 51.542 38.619 51.149 38.487 50.665C38.355 50.182 38.284 49.599 38.275 48.915C38.284 48.213 38.357 47.621 38.494 47.138C38.631 46.655 38.82 46.26 39.062 45.954Z" fill="#B9C2C9"/>
<path d="M13.5 14H19.5C20.052 14 20.5 13.552 20.5 13C20.5 12.448 20.052 12 19.5 12H13.5C12.948 12 12.5 12.448 12.5 13C12.5 13.552 12.948 14 13.5 14Z" fill="#B9C2C9"/>
<path d="M13.5 19H22.5C23.052 19 23.5 18.552 23.5 18C23.5 17.448 23.052 17 22.5 17H13.5C12.948 17 12.5 17.448 12.5 18C12.5 18.552 12.948 19 13.5 19Z" fill="#B9C2C9"/>
<path d="M26.5 19C26.76 19 27.02 18.89 27.21 18.71C27.39 18.52 27.5 18.26 27.5 18C27.5 17.74 27.39 17.48 27.21 17.29C26.84 16.92 26.16 16.92 25.79 17.29C25.61 17.48 25.5 17.74 25.5 18C25.5 18.26 25.61 18.52 25.79 18.71C25.98 18.89 26.24 19 26.5 19Z" fill="#B9C2C9"/>
<path d="M30.5 19H38.5C39.052 19 39.5 18.552 39.5 18C39.5 17.448 39.052 17 38.5 17H30.5C29.948 17 29.5 17.448 29.5 18C29.5 18.552 29.948 19 30.5 19Z" fill="#B9C2C9"/>
<path d="M12.79 32.29C12.61 32.48 12.5 32.74 12.5 33C12.5 33.26 12.61 33.52 12.79 33.71C12.98 33.89 13.24 34 13.5 34C13.76 34 14.02 33.89 14.21 33.71C14.39 33.52 14.5 33.26 14.5 33C14.5 32.73 14.39 32.48 14.21 32.29C13.84 31.92 13.16 31.92 12.79 32.29Z" fill="#B9C2C9"/>
<path d="M25.5 32H17.5C16.948 32 16.5 32.448 16.5 33C16.5 33.552 16.948 34 17.5 34H25.5C26.052 34 26.5 33.552 26.5 33C26.5 32.448 26.052 32 25.5 32Z" fill="#B9C2C9"/>
<path d="M44.5 17H42.5C41.948 17 41.5 17.448 41.5 18C41.5 18.552 41.948 19 42.5 19H44.5C45.052 19 45.5 18.552 45.5 18C45.5 17.448 45.052 17 44.5 17Z" fill="#B9C2C9"/>
<path d="M13.5 24H35.5C36.052 24 36.5 23.552 36.5 23C36.5 22.448 36.052 22 35.5 22H13.5C12.948 22 12.5 22.448 12.5 23C12.5 23.552 12.948 24 13.5 24Z" fill="#B9C2C9"/>
<path d="M44.5 22H38.5C37.948 22 37.5 22.448 37.5 23C37.5 23.552 37.948 24 38.5 24H44.5C45.052 24 45.5 23.552 45.5 23C45.5 22.448 45.052 22 44.5 22Z" fill="#B9C2C9"/>
<path d="M13.5 29H17.5C18.052 29 18.5 28.552 18.5 28C18.5 27.448 18.052 27 17.5 27H13.5C12.948 27 12.5 27.448 12.5 28C12.5 28.552 12.948 29 13.5 29Z" fill="#B9C2C9"/>
<path d="M31.5 27H21.5C20.948 27 20.5 27.448 20.5 28C20.5 28.552 20.948 29 21.5 29H31.5C32.052 29 32.5 28.552 32.5 28C32.5 27.448 32.052 27 31.5 27Z" fill="#B9C2C9"/>
<path d="M44.5 27H35.5C34.948 27 34.5 27.448 34.5 28C34.5 28.552 34.948 29 35.5 29H44.5C45.052 29 45.5 28.552 45.5 28C45.5 27.448 45.052 27 44.5 27Z" fill="#B9C2C9"/>
</svg>
