<svg width="58" height="58" viewBox="0 0 58 58" fill="none" xmlns="http://www.w3.org/2000/svg">
<path d="M50.95 12.187L50.179 11.416L40.084 1.321L39.313 0.55C38.964 0.201 38.48 0 37.985 0H8.963C7.777 0 6.5 0.916 6.5 2.926V39V55.537V56C6.5 56.837 7.342 57.653 8.338 57.91C8.388 57.923 8.436 57.942 8.488 57.952C8.644 57.983 8.803 58 8.963 58H49.037C49.197 58 49.356 57.983 49.512 57.952C49.564 57.942 49.612 57.923 49.662 57.91C50.658 57.653 51.5 56.837 51.5 56V55.537V39V13.978C51.5 13.211 51.408 12.645 50.95 12.187ZM47.935 12H39.5V3.565L47.935 12ZM8.963 56C8.892 56 8.828 55.974 8.765 55.951C8.609 55.877 8.5 55.721 8.5 55.537V41H49.5V55.537C49.5 55.721 49.391 55.876 49.235 55.951C49.172 55.974 49.108 56 49.037 56H8.963ZM8.5 39V2.926C8.5 2.709 8.533 2 8.963 2H37.558C37.525 2.126 37.5 2.256 37.5 2.391V14H49.109C49.244 14 49.373 13.975 49.499 13.942C49.499 13.957 49.5 13.963 49.5 13.978V39H8.5Z" fill="#B9C2C9"/>
<path d="M22.042 44.744C21.709 44.471 21.333 44.265 20.914 44.129C20.495 43.992 20.071 43.924 19.643 43.924H16.745V54H18.386V50.363H19.603C20.131 50.363 20.615 50.286 21.052 50.131C21.489 49.976 21.863 49.757 22.173 49.475C22.483 49.193 22.724 48.844 22.898 48.429C23.071 48.014 23.158 47.552 23.158 47.041C23.158 46.558 23.055 46.123 22.85 45.735C22.645 45.347 22.375 45.018 22.042 44.744ZM21.42 48.073C21.319 48.351 21.188 48.567 21.024 48.722C20.86 48.877 20.68 48.989 20.484 49.057C20.288 49.125 20.089 49.16 19.889 49.16H18.385V45.168H19.615C20.034 45.168 20.371 45.234 20.627 45.366C20.882 45.498 21.08 45.662 21.222 45.858C21.363 46.054 21.456 46.259 21.502 46.473C21.547 46.687 21.57 46.876 21.57 47.04C21.57 47.451 21.52 47.795 21.42 48.073Z" fill="#B9C2C9"/>
<path d="M31.954 45.4C31.53 44.954 30.997 44.595 30.354 44.327C29.711 44.059 28.966 43.924 28.119 43.924H25.084V54H28.898C29.025 54 29.221 53.984 29.486 53.952C29.75 53.92 30.042 53.848 30.361 53.733C30.68 53.619 31.01 53.448 31.352 53.22C31.694 52.992 32.001 52.68 32.275 52.283C32.549 51.886 32.774 51.394 32.952 50.806C33.13 50.218 33.219 49.509 33.219 48.68C33.219 48.078 33.114 47.492 32.905 46.923C32.694 46.355 32.378 45.847 31.954 45.4ZM30.758 51.73C30.266 52.441 29.464 52.796 28.352 52.796H26.725V45.167H27.682C28.466 45.167 29.104 45.27 29.596 45.475C30.088 45.68 30.478 45.949 30.765 46.282C31.052 46.615 31.245 46.986 31.346 47.396C31.446 47.806 31.496 48.221 31.496 48.64C31.496 49.989 31.25 51.02 30.758 51.73Z" fill="#B9C2C9"/>
<path d="M35.598 54H37.266V49.461H41.477V48.34H37.266V45.168H41.9V43.924H35.598V54Z" fill="#B9C2C9"/>
<path d="M38.428 22.961C37.509 22.961 36.381 23.081 35.07 23.319C33.24 21.377 31.33 18.541 29.982 15.757C31.319 10.128 30.65 9.331 30.355 8.955C30.041 8.555 29.598 7.906 29.094 7.906C28.883 7.906 28.307 8.002 28.078 8.078C27.502 8.27 27.192 8.714 26.944 9.293C26.237 10.946 27.207 13.764 28.205 15.936C27.352 19.329 25.921 23.39 24.417 26.686C20.627 28.422 18.614 30.127 18.432 31.754C18.366 32.346 18.506 33.215 19.547 33.996C19.832 34.209 20.166 34.322 20.514 34.322C21.389 34.322 22.273 33.652 23.296 32.215C24.042 31.167 24.843 29.738 25.679 27.964C28.357 26.793 31.67 25.735 34.507 25.142C36.087 26.659 37.502 27.427 38.718 27.427C39.614 27.427 40.382 27.015 40.938 26.236C41.517 25.425 41.649 24.699 41.328 24.076C40.943 23.327 39.994 22.961 38.428 22.961ZM20.536 32.634C20.068 32.275 20.095 32.033 20.105 31.942C20.167 31.386 21.038 30.399 23.175 29.198C21.555 32.19 20.685 32.587 20.536 32.634ZM28.736 9.712C28.779 9.698 29.781 10.813 28.832 12.928C27.406 11.469 28.638 9.745 28.736 9.712ZM26.669 25.738C27.684 23.319 28.628 20.648 29.343 18.174C30.466 20.192 31.815 22.15 33.165 23.718C31.031 24.219 28.759 24.926 26.669 25.738ZM39.57 25.259C39.262 25.69 38.594 25.7 38.36 25.7C37.827 25.7 37.628 25.383 36.813 24.756C37.485 24.67 38.119 24.648 38.624 24.648C39.513 24.648 39.676 24.779 39.799 24.845C39.777 24.916 39.719 25.05 39.57 25.259Z" fill="#B9C2C9"/>
</svg>
