<svg width="58" height="58" viewBox="0 0 58 58" fill="none" xmlns="http://www.w3.org/2000/svg">
<path d="M50.95 12.187L50.179 11.416L40.084 1.321L39.313 0.55C38.964 0.201 38.48 0 37.985 0H8.963C7.777 0 6.5 0.916 6.5 2.926V39V55.537V56C6.5 56.837 7.342 57.653 8.338 57.91C8.388 57.923 8.436 57.942 8.488 57.952C8.644 57.983 8.803 58 8.963 58H49.037C49.197 58 49.356 57.983 49.512 57.952C49.564 57.942 49.612 57.923 49.662 57.91C50.658 57.653 51.5 56.837 51.5 56V55.537V39V13.978C51.5 13.211 51.408 12.645 50.95 12.187ZM47.935 12H39.5V3.565L47.935 12ZM8.963 56C8.892 56 8.828 55.974 8.765 55.951C8.609 55.877 8.5 55.721 8.5 55.537V41H49.5V55.537C49.5 55.721 49.391 55.876 49.235 55.951C49.172 55.974 49.108 56 49.037 56H8.963ZM8.5 39V2.926C8.5 2.709 8.533 2 8.963 2H37.558C37.525 2.126 37.5 2.256 37.5 2.391V14H49.109C49.244 14 49.373 13.975 49.499 13.942C49.499 13.957 49.5 13.963 49.5 13.978V39H8.5Z" fill="#B9C2C9"/>
<path d="M22.227 43.924L20.299 48.025H20.162L18.385 43.924H16.512L19.232 49.105L16.676 54H18.576L20.299 50.199H20.436L22.035 54H23.936L21.379 49.105L24.1 43.924H22.227Z" fill="#B9C2C9"/>
<path d="M28.037 43.924H26.369V54H32.672V52.756H28.037V43.924Z" fill="#B9C2C9"/>
<path d="M38.94 49.064C38.626 48.836 38.286 48.642 37.921 48.483C37.556 48.324 37.219 48.16 36.909 47.991C36.599 47.822 36.339 47.627 36.13 47.403C35.92 47.179 35.816 46.885 35.816 46.521C35.816 46.375 35.852 46.222 35.925 46.063C35.998 45.904 36.098 45.76 36.226 45.632C36.353 45.504 36.499 45.398 36.664 45.311C36.829 45.224 37.001 45.172 37.184 45.154C37.512 45.127 37.781 45.122 37.991 45.14C38.2 45.159 38.369 45.19 38.497 45.236C38.624 45.282 38.723 45.327 38.791 45.373C38.859 45.419 38.921 45.455 38.976 45.482C38.985 45.473 39.012 45.427 39.058 45.345C39.103 45.263 39.158 45.16 39.222 45.037C39.285 44.914 39.354 44.782 39.427 44.641C39.5 44.499 39.564 44.37 39.618 44.251C39.353 44.078 39.007 43.952 38.579 43.875C38.15 43.798 37.726 43.759 37.308 43.759C36.898 43.759 36.508 43.822 36.139 43.95C35.77 44.078 35.446 44.263 35.168 44.504C34.89 44.745 34.669 45.039 34.505 45.386C34.341 45.733 34.259 46.129 34.259 46.575C34.259 47.067 34.363 47.477 34.573 47.805C34.782 48.133 35.047 48.418 35.366 48.659C35.685 48.9 36.027 49.11 36.391 49.288C36.755 49.466 37.095 49.643 37.41 49.821C37.725 49.999 37.986 50.197 38.196 50.416C38.405 50.635 38.51 50.899 38.51 51.209C38.51 51.72 38.362 52.105 38.066 52.364C37.77 52.624 37.343 52.754 36.788 52.754C36.605 52.754 36.41 52.735 36.2 52.699C35.99 52.663 35.781 52.615 35.571 52.555C35.361 52.495 35.158 52.432 34.963 52.364C34.767 52.296 34.605 52.225 34.478 52.152L34.191 53.328C34.346 53.465 34.53 53.581 34.745 53.677C34.959 53.773 35.184 53.848 35.422 53.903C35.659 53.958 35.894 53.997 36.126 54.019C36.358 54.041 36.584 54.053 36.803 54.053C37.313 54.053 37.769 53.976 38.17 53.821C38.571 53.666 38.908 53.459 39.182 53.199C39.456 52.939 39.667 52.638 39.818 52.297C39.969 51.956 40.044 51.602 40.044 51.237C40.044 50.699 39.939 50.259 39.73 49.918C39.517 49.577 39.255 49.292 38.94 49.064Z" fill="#B9C2C9"/>
<path d="M24.5 13H12.5V17V19V21V23V25V27V29V31V35H22.5H24.5H45.5V31V29V27V25V23V21V17H24.5V13ZM14.5 19H22.5V21H14.5V19ZM14.5 23H22.5V25H14.5V23ZM14.5 27H22.5V29H14.5V27ZM22.5 33H14.5V31H22.5V33ZM43.5 33H24.5V31H43.5V33ZM43.5 29H24.5V27H43.5V29ZM43.5 25H24.5V23H43.5V25ZM43.5 19V21H24.5V19H43.5ZM14.5 17V15H22.5V17H14.5Z" fill="#B9C2C9"/>
</svg>
